<?xml version="1.0" encoding="utf-8" ?><svg xmlns="http://www.w3.org/2000/svg" xmlns:xlink="http://www.w3.org/1999/xlink" width="1024" height="559" viewBox="0 0 1024 559" xmlns:c2pa="http://c2pa.org/manifest"><metadata><c2pa:manifest>AAA692p1bWIAAAAeanVtZGMycGEAEQAQgAAAqgA4m3EDYzJwYQAAAA6EanVtYgAAAEdqdW1kYzJtYQARABCAAACqADibcQN1cm46YzJwYTpmZjkwOWI5YS04Mjk2LTQ3NDctOWY3Ni0xYTIwMzk2OGQ0ZjkAAAADtWp1bWIAAAApanVtZGMyYXMAEQAQgAAAqgA4m3EDYzJwYS5hc3NlcnRpb25zAAAAAMlqdW1iAAAARGp1bWRjYm9yABEAEIAAAKoAOJtxE2MycGEuaW5ncmVkaWVudC52MwAAAAAYYzJzaO593McclHIUR8KkgTUgypQAAAB9Y2JvcqRscmVsYXRpb25zaGlwaHBhcmVudE9maGRjOnRpdGxlZnNvdXJjZWlkYzpmb3JtYXRqaW1hZ2Uvd2VicGppbnN0YW5jZUlEeCx4bXA6aWlkOjQ0MTAyYWIxLTI4NTAtNDlhZi05MjhlLTY4Y2E0M2Q1NjQzMgAAAfVqdW1iAAAAQWp1bWRjYm9yABEAEIAAAKoAOJtxE2MycGEuYWN0aW9ucy52MgAAAAAYYzJzaNCkRMw1oGzSzGts3VMjNE8AAAGsY2JvcqFnYWN0aW9uc4KiZmFjdGlvbmtjMnBhLm9wZW5lZGpwYXJhbWV0ZXJzoWtpbmdyZWRpZW50c4GiY3VybHgtc2VsZiNqdW1iZj1jMnBhLmFzc2VydGlvbnMvYzJwYS5pbmdyZWRpZW50LnYzZGhhc2hYIAvXaJpgAHt3csSbnCuVn6UzfATYq6OND1TfMErIyhkbpGZhY3Rpb25rYzJwYS5lZGl0ZWRqcGFyYW1ldGVyc6FraW5ncmVkaWVudHOBomN1cmx4LXNlbGYjanVtYmY9YzJwYS5hc3NlcnRpb25zL2MycGEuaW5ncmVkaWVudC52M2RoYXNoWCAL12iaYAB7d3LEm5wrlZ+lM3wE2KujjQ9U3zBKyMoZG3FkaWdpdGFsU291cmNlVHlwZXhTaHR0cDovL2N2LmlwdGMub3JnL25ld3Njb2Rlcy9kaWdpdGFsc291cmNldHlwZS9jb21wb3NpdGVXaXRoVHJhaW5lZEFsZ29yaXRobWljTWVkaWFrZGVzY3JpcHRpb252Q3JlYXRlZCBieSBSZWNyYWZ0IEFJLgAAAMZqdW1iAAAAQGp1bWRjYm9yABEAEIAAAKoAOJtxE2MycGEuaGFzaC5kYXRhAAAAABhjMnNoT0fApq0QRPrWGKSMl0+qFQAAAH5jYm9ypWpleGNsdXNpb25zgaJlc3RhcnQaAAFmamZsZW5ndGgZDrJkbmFtZW5qdW1iZiBtYW5pZmVzdGNhbGdmc2hhMjU2ZGhhc2hYIJg5HRnKY2C51jE+ZoWjwV1CbST58aZ3nPXlr2Hv/JTwY3BhZEgAAAAAAAAAAAAAAqRqdW1iAAAAJ2p1bWRjMmNsABEAEIAAAKoAOJtxA2MycGEuY2xhaW0udjIAAAACdWNib3Knamluc3RhbmNlSUR4LHhtcDppaWQ6ZjMzODA1NTMtNjBiMC00MzIzLTk4NTctMjc3M2ZmNmMzNzdhdGNsYWltX2dlbmVyYXRvcl9pbmZvo2RuYW1lanJlY3JhZnQuYWlndmVyc2lvbngoODFjZTgyZTJjNWMzY2JmYmU4YzZmYmUxNzlkNWY4ZDkxYzQwOWNlMXdvcmcuY29udGVudGF1dGguYzJwYV9yc2YwLjkwLjdpc2lnbmF0dXJleE1zZWxmI2p1bWJmPS9jMnBhL3VybjpjMnBhOmZmOTA5YjlhLTgyOTYtNDc0Ny05Zjc2LTFhMjAzOTY4ZDRmOS9jMnBhLnNpZ25hdHVyZXJjcmVhdGVkX2Fzc2VydGlvbnOComN1cmx4KnNlbGYjanVtYmY9YzJwYS5hc3NlcnRpb25zL2MycGEuYWN0aW9ucy52MmRoYXNoWCBKpzktNeGKyl4z6hNegcNvAuGBB29lUN9lwsxN44j1CaJjdXJseClzZWxmI2p1bWJmPWMycGEuYXNzZXJ0aW9ucy9jMnBhLmhhc2guZGF0YWRoYXNoWCCgoZJszRGrWGsUe1rMLitUg3PpThH+5+SwvIjkWFwiYXNnYXRoZXJlZF9hc3NlcnRpb25zgaJjdXJseC1zZWxmI2p1bWJmPWMycGEuYXNzZXJ0aW9ucy9jMnBhLmluZ3JlZGllbnQudjNkaGFzaFggC9dommAAe3dyxJucK5WfpTN8BNiro40PVN8wSsjKGRtoZGM6dGl0bGV4GlJlY3JhZnQgQUkgR2VuZXJhdGVkIEltYWdlY2FsZ2ZzaGEyNTYAAAfcanVtYgAAAChqdW1kYzJjcwARABCAAACqADibcQNjMnBhLnNpZ25hdHVyZQAAAAesY2JvctKEWQOwogEmGCGCWQHnMIIB4zCCAYmgAwIBAgIJALfeWmNDUW56MAoGCCqGSM49BAMCMEAxHzAdBgNVBAMMFlJlY3JhZnQgU3RhZ2luZyBEZXYgQ0ExEDAOBgNVBAoMB1JlY3JhZnQxCzAJBgNVBAYTAlVTMB4XDTI2MDYxMjE5NDM1MFoXDTI3MDYxMjE5NDM1MFowNzELMAkGA1UEBhMCVVMxEzARBgNVBAoTClJlY3JhZnQgQUkxEzARBgNVBAMTCnJlY3JhZnQuYWkwWTATBgcqhkjOPQIBBggqhkjOPQMBBwNCAARKaTVbACsg/DeG3LeOxYdID/VA6EFG73E6Oknb+KIiCFJygRUz4ueN2z/t2qYb6CIUvS8RvgOiiClfoqsYtw81o3UwczAMBgNVHRMBAf8EAjAAMA4GA1UdDwEB/wQEAwIGwDATBgNVHSUEDDAKBggrBgEFBQcDBDAdBgNVHQ4EFgQULzHpBen96SL1y4IPHa8MkMshXf0wHwYDVR0jBBgwFoAUAgsqOBrKqpdK//m/kxZo7ZR4ebcwCgYIKoZIzj0EAwIDSAAwRQIgU8hKW0aXvvk8SQgVFNkax69Ym9ae8GsT2RZTQw+B51ACIQC0D4BkEoRD4N0r2ZRkNy0HZaW3WICy/QZGN95ilF4yzFkBvTCCAbkwggFfoAMCAQICCQCc+Wg7T6ATbzAKBggqhkjOPQQDAjBAMR8wHQYDVQQDDBZSZWNyYWZ0IFN0YWdpbmcgRGV2IENBMRAwDgYDVQQKDAdSZWNyYWZ0MQswCQYDVQQGEwJVUzAeFw0yNjA2MTIxOTQwMTZaFw0yODA2MTExOTQwMTZaMEAxHzAdBgNVBAMMFlJlY3JhZnQgU3RhZ2luZyBEZXYgQ0ExEDAOBgNVBAoMB1JlY3JhZnQxCzAJBgNVBAYTAlVTMFkwEwYHKoZIzj0CAQYIKoZIzj0DAQcDQgAEQ9IQBlcVbKaKPYrQSfOhL/00s7xUDC7RinIuLO/I1k99y9yh6oWF9kPxaP+tx1v1PeOL3yrVquJ730H0ZGiDyqNCMEAwDwYDVR0TAQH/BAUwAwEB/zAOBgNVHQ8BAf8EBAMCAYYwHQYDVR0OBBYEFAILKjgayqqXSv/5v5MWaO2UeHm3MAoGCCqGSM49BAMCA0gAMEUCIFQwNImLlYDeQhjgF+ZiqTbgcuzSqmOJw3Q2lQ/hu83FAiEA9O8cLm/xfoVLqB4jtdbuHzi3WL+p2RN+DRGkwpYswVuhY3BhZFkDpAAAAAAAAAAAAAAAAAAAAAAAAAAAAAAAAAAAAAAAAAAAAAAAAAAAAAAAAAAAAAAAAAAAAAAAAAAAAAAAAAAAAAAAAAAAAAAAAAAAAAAAAAAAAAAAAAAAAAAAAAAAAAAAAAAAAAAAAAAAAAAAAAAAAAAAAAAAAAAAAAAAAAAAAAAAAAAAAAAAAAAAAAAAAAAAAAAAAAAAAAAAAAAAAAAAAAAAAAAAAAAAAAAAAAAAAAAAAAAAAAAAAAAAAAAAAAAAAAAAAAAAAAAAAAAAAAAAAAAAAAAAAAAAAAAAAAAAAAAAAAAAAAAAAAAAAAAAAAAAAAAAAAAAAAAAAAAAAAAAAAAAAAAAAAAAAAAAAAAAAAAAAAAAAAAAAAAAAAAAAAAAAAAAAAAAAAAAAAAAAAAAAAAAAAAAAAAAAAAAAAAAAAAAAAAAAAAAAAAAAAAAAAAAAAAAAAAAAAAAAAAAAAAAAAAAAAAAAAAAAAAAAAAAAAAAAAAAAAAAAAAAAAAAAAAAAAAAAAAAAAAAAAAAAAAAAAAAAAAAAAAAAAAAAAAAAAAAAAAAAAAAAAAAAAAAAAAAAAAAAAAAAAAAAAAAAAAAAAAAAAAAAAAAAAAAAAAAAAAAAAAAAAAAAAAAAAAAAAAAAAAAAAAAAAAAAAAAAAAAAAAAAAAAAAAAAAAAAAAAAAAAAAAAAAAAAAAAAAAAAAAAAAAAAAAAAAAAAAAAAAAAAAAAAAAAAAAAAAAAAAAAAAAAAAAAAAAAAAAAAAAAAAAAAAAAAAAAAAAAAAAAAAAAAAAAAAAAAAAAAAAAAAAAAAAAAAAAAAAAAAAAAAAAAAAAAAAAAAAAAAAAAAAAAAAAAAAAAAAAAAAAAAAAAAAAAAAAAAAAAAAAAAAAAAAAAAAAAAAAAAAAAAAAAAAAAAAAAAAAAAAAAAAAAAAAAAAAAAAAAAAAAAAAAAAAAAAAAAAAAAAAAAAAAAAAAAAAAAAAAAAAAAAAAAAAAAAAAAAAAAAAAAAAAAAAAAAAAAAAAAAAAAAAAAAAAAAAAAAAAAAAAAAAAAAAAAAAAAAAAAAAAAAAAAAAAAAAAAAAAAAAAAAAAAAAAAAAAAAAAAAAAAAAAAAAAAAAAAAAAAAAAAAAAAAAAAAAAAAAAAAAAAAAAAAAAAAAAAAAAAAAAAAAAAAAAAAAAAAAAAAAAAAAAAAAAAAAAAAAAAAAAAAAAAAAAAAAAAAAAAAAAAAAAAAAAAAAAAAAAAAA9lhAT4MjG/F32LhGG74yoTVFuQofId8LJXMnnwrDJ0ncHgj4ibWmKu6SBkE2xjl2k5J3O8RPJNeh11YmUWKlV5vAkAAAFktqdW1iAAAAR2p1bWRjMm1hABEAEIAAAKoAOJtxA3VybjpjMnBhOjc2ZmUxOWY2LWQ2MmYtNDkzMy1iYTg4LTkzYThkYTkxNDY1OQAAAAt8anVtYgAAAClqdW1kYzJhcwARABCAAACqADibcQNjMnBhLmFzc2VydGlvbnMAAAAIkmp1bWIAAABEanVtZGNib3IAEQAQgAAAqgA4m3ETYzJwYS5pbmdyZWRpZW50LnYzAAAAABhjMnNohmWu52QEThAXY3w7VsB5LgAACEZjYm9yp2xyZWxhdGlvbnNoaXBocGFyZW50T2ZoZGM6dGl0bGVmc291cmNlaWRjOmZvcm1hdGppbWFnZS93ZWJwcXZhbGlkYXRpb25SZXN1bHRzom5hY3RpdmVNYW5pZmVzdKNnc3VjY2Vzc4ajZGNvZGV4HWNsYWltU2lnbmF0dXJlLmluc2lkZVZhbGlkaXR5Y3VybHhNc2VsZiNqdW1iZj0vYzJwYS91cm46YzJwYTpmZjkwOWI5YS04Mjk2LTQ3NDctOWY3Ni0xYTIwMzk2OGQ0ZjkvYzJwYS5zaWduYXR1cmVrZXhwbGFuYXRpb251Y2xhaW0gc2lnbmF0dXJlIHZhbGlko2Rjb2RleBhjbGFpbVNpZ25hdHVyZS52YWxpZGF0ZWRjdXJseE1zZWxmI2p1bWJmPS9jMnBhL3VybjpjMnBhOmZmOTA5YjlhLTgyOTYtNDc0Ny05Zjc2LTFhMjAzOTY4ZDRmOS9jMnBhLnNpZ25hdHVyZWtleHBsYW5hdGlvbnVjbGFpbSBzaWduYXR1cmUgdmFsaWSjZGNvZGV4GWFzc2VydGlvbi5oYXNoZWRVUkkubWF0Y2hjdXJseF5zZWxmI2p1bWJmPS9jMnBhL3VybjpjMnBhOmZmOTA5YjlhLTgyOTYtNDc0Ny05Zjc2LTFhMjAzOTY4ZDRmOS9jMnBhLmFzc2VydGlvbnMvYzJwYS5hY3Rpb25zLnYya2V4cGxhbmF0aW9ueD5oYXNoZWQgdXJpIG1hdGNoZWQ6IHNlbGYjanVtYmY9YzJwYS5hc3NlcnRpb25zL2MycGEuYWN0aW9ucy52MqNkY29kZXgZYXNzZXJ0aW9uLmhhc2hlZFVSSS5tYXRjaGN1cmx4XXNlbGYjanVtYmY9L2MycGEvdXJuOmMycGE6ZmY5MDliOWEtODI5Ni00NzQ3LTlmNzYtMWEyMDM5NjhkNGY5L2MycGEuYXNzZXJ0aW9ucy9jMnBhLmhhc2guZGF0YWtleHBsYW5hdGlvbng9aGFzaGVkIHVyaSBtYXRjaGVkOiBzZWxmI2p1bWJmPWMycGEuYXNzZXJ0aW9ucy9jMnBhLmhhc2guZGF0YaNkY29kZXgZYXNzZXJ0aW9uLmhhc2hlZFVSSS5tYXRjaGN1cmx4YXNlbGYjanVtYmY9L2MycGEvdXJuOmMycGE6ZmY5MDliOWEtODI5Ni00NzQ3LTlmNzYtMWEyMDM5NjhkNGY5L2MycGEuYXNzZXJ0aW9ucy9jMnBhLmluZ3JlZGllbnQudjNrZXhwbGFuYXRpb254QWhhc2hlZCB1cmkgbWF0Y2hlZDogc2VsZiNqdW1iZj1jMnBhLmFzc2VydGlvbnMvYzJwYS5pbmdyZWRpZW50LnYzo2Rjb2RleBhhc3NlcnRpb24uZGF0YUhhc2gubWF0Y2hjdXJseF1zZWxmI2p1bWJmPS9jMnBhL3VybjpjMnBhOmZmOTA5YjlhLTgyOTYtNDc0Ny05Zjc2LTFhMjAzOTY4ZDRmOS9jMnBhLmFzc2VydGlvbnMvYzJwYS5oYXNoLmRhdGFrZXhwbGFuYXRpb25vZGF0YSBoYXNoIHZhbGlkbWluZm9ybWF0aW9uYWyAZ2ZhaWx1cmWBo2Rjb2RleBtzaWduaW5nQ3JlZGVudGlhbC51bnRydXN0ZWRjdXJseE1zZWxmI2p1bWJmPS9jMnBhL3VybjpjMnBhOmZmOTA5YjlhLTgyOTYtNDc0Ny05Zjc2LTFhMjAzOTY4ZDRmOS9jMnBhLnNpZ25hdHVyZWtleHBsYW5hdGlvbngdc2lnbmluZyBjZXJ0aWZpY2F0ZSB1bnRydXN0ZWRwaW5ncmVkaWVudERlbHRhc4GidmluZ3JlZGllbnRBc3NlcnRpb25VUkl4YXNlbGYjanVtYmY9L2MycGEvdXJuOmMycGE6ZmY5MDliOWEtODI5Ni00NzQ3LTlmNzYtMWEyMDM5NjhkNGY5L2MycGEuYXNzZXJ0aW9ucy9jMnBhLmluZ3JlZGllbnQudjNwdmFsaWRhdGlvbkRlbHRhc6Nnc3VjY2Vzc4BtaW5mb3JtYXRpb25hbIGjZGNvZGV4HGluZ3JlZGllbnQudW5rbm93blByb3ZlbmFuY2VjdXJseGFzZWxmI2p1bWJmPS9jMnBhL3VybjpjMnBhOmZmOTA5YjlhLTgyOTYtNDc0Ny05Zjc2LTFhMjAzOTY4ZDRmOS9jMnBhLmFzc2VydGlvbnMvYzJwYS5pbmdyZWRpZW50LnYza2V4cGxhbmF0aW9ueCtzb3VyY2U6IGluZ3JlZGllbnQgZG9lcyBub3QgaGF2ZSBwcm92ZW5hbmNlZ2ZhaWx1cmWAamluc3RhbmNlSUR4LHhtcDppaWQ6OTNjNGU0ZWItMTc0OS00ZjI3LTgxOGYtMjQzOTQ0NDVjOGQ1bmFjdGl2ZU1hbmlmZXN0o2N1cmx4PnNlbGYjanVtYmY9L2MycGEvdXJuOmMycGE6ZmY5MDliOWEtODI5Ni00NzQ3LTlmNzYtMWEyMDM5NjhkNGY5Y2FsZ2ZzaGEyNTZkaGFzaFggYqnHSqAlUxgtz7/u37qzSkFSY2/12XreH1WSPUN6rUZuY2xhaW1TaWduYXR1cmWjY3VybHhNc2VsZiNqdW1iZj0vYzJwYS91cm46YzJwYTpmZjkwOWI5YS04Mjk2LTQ3NDctOWY3Ni0xYTIwMzk2OGQ0ZjkvYzJwYS5zaWduYXR1cmVjYWxnZnNoYTI1NmRoYXNoWCBca3tjtmpPVBnI8HpIV+U4Yw9G0ni2oR9I6eBNxbsgJAAAAfVqdW1iAAAAQWp1bWRjYm9yABEAEIAAAKoAOJtxE2MycGEuYWN0aW9ucy52MgAAAAAYYzJzaN0OBLGFtscm033gr3/1eO0AAAGsY2JvcqFnYWN0aW9uc4KiZmFjdGlvbmtjMnBhLm9wZW5lZGpwYXJhbWV0ZXJzoWtpbmdyZWRpZW50c4GiY3VybHgtc2VsZiNqdW1iZj1jMnBhLmFzc2VydGlvbnMvYzJwYS5pbmdyZWRpZW50LnYzZGhhc2hYIO857mJUPx/5i4mcK1kvMaQMzUP4s6pvV7GgBYSnYoWNpGZhY3Rpb25rYzJwYS5lZGl0ZWRqcGFyYW1ldGVyc6FraW5ncmVkaWVudHOBomN1cmx4LXNlbGYjanVtYmY9YzJwYS5hc3NlcnRpb25zL2MycGEuaW5ncmVkaWVudC52M2RoYXNoWCDvOe5iVD8f+YuJnCtZLzGkDM1D+LOqb1exoAWEp2KFjXFkaWdpdGFsU291cmNlVHlwZXhTaHR0cDovL2N2LmlwdGMub3JnL25ld3Njb2Rlcy9kaWdpdGFsc291cmNldHlwZS9jb21wb3NpdGVXaXRoVHJhaW5lZEFsZ29yaXRobWljTWVkaWFrZGVzY3JpcHRpb252Q3JlYXRlZCBieSBSZWNyYWZ0IEFJLgAAAMRqdW1iAAAAQGp1bWRjYm9yABEAEIAAAKoAOJtxE2MycGEuaGFzaC5kYXRhAAAAABhjMnNo+H2QO8nSCKATGa4wv1AXxgAAAHxjYm9ypWpleGNsdXNpb25zgaJlc3RhcnQY2mZsZW5ndGgZMUhkbmFtZW5qdW1iZiBtYW5pZmVzdGNhbGdmc2hhMjU2ZGhhc2hYIFji2zKZ846IvPcDTJHYtnWaz34y3RlSW1CKsVtnAHDEY3BhZEkAAAAAAAAAAAAAAAKkanVtYgAAACdqdW1kYzJjbAARABCAAACqADibcQNjMnBhLmNsYWltLnYyAAAAAnVjYm9yp2ppbnN0YW5jZUlEeCx4bXA6aWlkOjI2NzcyNGJlLTIzMDItNDAxNC04ZDgzLWYxODM4Y2I4ZmM1ZnRjbGFpbV9nZW5lcmF0b3JfaW5mb6NkbmFtZWpyZWNyYWZ0LmFpZ3ZlcnNpb254KDgxY2U4MmUyYzVjM2NiZmJlOGM2ZmJlMTc5ZDVmOGQ5MWM0MDljZTF3b3JnLmNvbnRlbnRhdXRoLmMycGFfcnNmMC45MC43aXNpZ25hdHVyZXhNc2VsZiNqdW1iZj0vYzJwYS91cm46YzJwYTo3NmZlMTlmNi1kNjJmLTQ5MzMtYmE4OC05M2E4ZGE5MTQ2NTkvYzJwYS5zaWduYXR1cmVyY3JlYXRlZF9hc3NlcnRpb25zgqJjdXJseCpzZWxmI2p1bWJmPWMycGEuYXNzZXJ0aW9ucy9jMnBhLmFjdGlvbnMudjJkaGFzaFggm2lOfKXzntYFSmAFmIHIEUqA/C1QMAgWqCLA1W4JaX+iY3VybHgpc2VsZiNqdW1iZj1jMnBhLmFzc2VydGlvbnMvYzJwYS5oYXNoLmRhdGFkaGFzaFggDiF4us+4BzPTNaf8YMbGRfk5YLRnAhtIgTdHMXAjJStzZ2F0aGVyZWRfYXNzZXJ0aW9uc4GiY3VybHgtc2VsZiNqdW1iZj1jMnBhLmFzc2VydGlvbnMvYzJwYS5pbmdyZWRpZW50LnYzZGhhc2hYIO857mJUPx/5i4mcK1kvMaQMzUP4s6pvV7GgBYSnYoWNaGRjOnRpdGxleBpSZWNyYWZ0IEFJIEdlbmVyYXRlZCBJbWFnZWNhbGdmc2hhMjU2AAAH3Gp1bWIAAAAoanVtZGMyY3MAEQAQgAAAqgA4m3EDYzJwYS5zaWduYXR1cmUAAAAHrGNib3LShFkDsKIBJhghglkB5zCCAeMwggGJoAMCAQICCQC33lpjQ1FuejAKBggqhkjOPQQDAjBAMR8wHQYDVQQDDBZSZWNyYWZ0IFN0YWdpbmcgRGV2IENBMRAwDgYDVQQKDAdSZWNyYWZ0MQswCQYDVQQGEwJVUzAeFw0yNjA2MTIxOTQzNTBaFw0yNzA2MTIxOTQzNTBaMDcxCzAJBgNVBAYTAlVTMRMwEQYDVQQKEwpSZWNyYWZ0IEFJMRMwEQYDVQQDEwpyZWNyYWZ0LmFpMFkwEwYHKoZIzj0CAQYIKoZIzj0DAQcDQgAESmk1WwArIPw3hty3jsWHSA/1QOhBRu9xOjpJ2/iiIghScoEVM+Lnjds/7dqmG+giFL0vEb4DoogpX6KrGLcPNaN1MHMwDAYDVR0TAQH/BAIwADAOBgNVHQ8BAf8EBAMCBsAwEwYDVR0lBAwwCgYIKwYBBQUHAwQwHQYDVR0OBBYEFC8x6QXp/eki9cuCDx2vDJDLIV39MB8GA1UdIwQYMBaAFAILKjgayqqXSv/5v5MWaO2UeHm3MAoGCCqGSM49BAMCA0gAMEUCIFPISltGl775PEkIFRTZGsevWJvWnvBrE9kWU0MPgedQAiEAtA+AZBKEQ+DdK9mUZDctB2Wlt1iAsv0GRjfeYpReMsxZAb0wggG5MIIBX6ADAgECAgkAnPloO0+gE28wCgYIKoZIzj0EAwIwQDEfMB0GA1UEAwwWUmVjcmFmdCBTdGFnaW5nIERldiBDQTEQMA4GA1UECgwHUmVjcmFmdDELMAkGA1UEBhMCVVMwHhcNMjYwNjEyMTk0MDE2WhcNMjgwNjExMTk0MDE2WjBAMR8wHQYDVQQDDBZSZWNyYWZ0IFN0YWdpbmcgRGV2IENBMRAwDgYDVQQKDAdSZWNyYWZ0MQswCQYDVQQGEwJVUzBZMBMGByqGSM49AgEGCCqGSM49AwEHA0IABEPSEAZXFWymij2K0EnzoS/9NLO8VAwu0YpyLizvyNZPfcvcoeqFhfZD8Wj/rcdb9T3ji98q1arie99B9GRog8qjQjBAMA8GA1UdEwEB/wQFMAMBAf8wDgYDVR0PAQH/BAQDAgGGMB0GA1UdDgQWBBQCCyo4Gsqql0r/+b+TFmjtlHh5tzAKBggqhkjOPQQDAgNIADBFAiBUMDSJi5WA3kIY4BfmYqk24HLs0qpjicN0NpUP4bvNxQIhAPTvHC5v8X6FS6geI7XW7h84t1i/qdkTfg0RpMKWLMFboWNwYWRZA6QAAAAAAAAAAAAAAAAAAAAAAAAAAAAAAAAAAAAAAAAAAAAAAAAAAAAAAAAAAAAAAAAAAAAAAAAAAAAAAAAAAAAAAAAAAAAAAAAAAAAAAAAAAAAAAAAAAAAAAAAAAAAAAAAAAAAAAAAAAAAAAAAAAAAAAAAAAAAAAAAAAAAAAAAAAAAAAAAAAAAAAAAAAAAAAAAAAAAAAAAAAAAAAAAAAAAAAAAAAAAAAAAAAAAAAAAAAAAAAAAAAAAAAAAAAAAAAAAAAAAAAAAAAAAAAAAAAAAAAAAAAAAAAAAAAAAAAAAAAAAAAAAAAAAAAAAAAAAAAAAAAAAAAAAAAAAAAAAAAAAAAAAAAAAAAAAAAAAAAAAAAAAAAAAAAAAAAAAAAAAAAAAAAAAAAAAAAAAAAAAAAAAAAAAAAAAAAAAAAAAAAAAAAAAAAAAAAAAAAAAAAAAAAAAAAAAAAAAAAAAAAAAAAAAAAAAAAAAAAAAAAAAAAAAAAAAAAAAAAAAAAAAAAAAAAAAAAAAAAAAAAAAAAAAAAAAAAAAAAAAAAAAAAAAAAAAAAAAAAAAAAAAAAAAAAAAAAAAAAAAAAAAAAAAAAAAAAAAAAAAAAAAAAAAAAAAAAAAAAAAAAAAAAAAAAAAAAAAAAAAAAAAAAAAAAAAAAAAAAAAAAAAAAAAAAAAAAAAAAAAAAAAAAAAAAAAAAAAAAAAAAAAAAAAAAAAAAAAAAAAAAAAAAAAAAAAAAAAAAAAAAAAAAAAAAAAAAAAAAAAAAAAAAAAAAAAAAAAAAAAAAAAAAAAAAAAAAAAAAAAAAAAAAAAAAAAAAAAAAAAAAAAAAAAAAAAAAAAAAAAAAAAAAAAAAAAAAAAAAAAAAAAAAAAAAAAAAAAAAAAAAAAAAAAAAAAAAAAAAAAAAAAAAAAAAAAAAAAAAAAAAAAAAAAAAAAAAAAAAAAAAAAAAAAAAAAAAAAAAAAAAAAAAAAAAAAAAAAAAAAAAAAAAAAAAAAAAAAAAAAAAAAAAAAAAAAAAAAAAAAAAAAAAAAAAAAAAAAAAAAAAAAAAAAAAAAAAAAAAAAAAAAAAAAAAAAAAAAAAAAAAAAAAAAAAAAAAAAAAAAAAAAAAAAAAAAAAAAAAAAAAAAAAAAAAAAAAAAAAAAAAAAAAAAAAAAAAAAAAAAAAAAAAAAAAAAAAAAAAAAAAAAAAAAAAAAAAAAAAAAAAAAAAAAAAAAAAAAAAAAAAAAAAAAAAAAAAAAAAAAAAPZYQFbFdm4PeXKDj9i0RyM66aS7Tuwo/PztHr+xiJ6WZNywSuJBeYGQdm8nzDxa91qiWZUJn75wCqOTdW3QfFVCDUgAABYCanVtYgAAAEdqdW1kYzJtYQARABCAAACqADibcQN1cm46YzJwYTozM2E2MzczNC00M2EzLTQwY2MtODkwZS0wMDk1M2U2NDAwMGMAAAALQWp1bWIAAAApanVtZGMyYXMAEQAQgAAAqgA4m3EDYzJwYS5hc3NlcnRpb25zAAAACF5qdW1iAAAARGp1bWRjYm9yABEAEIAAAKoAOJtxE2MycGEuaW5ncmVkaWVudC52MwAAAAAYYzJzaLSK7W8dKmV0TDQ5FP7kFqwAAAgSY2JvcqdscmVsYXRpb25zaGlwaHBhcmVudE9maGRjOnRpdGxlZnNvdXJjZWlkYzpmb3JtYXRtaW1hZ2Uvc3ZnK3htbHF2YWxpZGF0aW9uUmVzdWx0c6JuYWN0aXZlTWFuaWZlc3SjZ3N1Y2Nlc3OGo2Rjb2RleB1jbGFpbVNpZ25hdHVyZS5pbnNpZGVWYWxpZGl0eWN1cmx4TXNlbGYjanVtYmY9L2MycGEvdXJuOmMycGE6NzZmZTE5ZjYtZDYyZi00OTMzLWJhODgtOTNhOGRhOTE0NjU5L2MycGEuc2lnbmF0dXJla2V4cGxhbmF0aW9udWNsYWltIHNpZ25hdHVyZSB2YWxpZKNkY29kZXgYY2xhaW1TaWduYXR1cmUudmFsaWRhdGVkY3VybHhNc2VsZiNqdW1iZj0vYzJwYS91cm46YzJwYTo3NmZlMTlmNi1kNjJmLTQ5MzMtYmE4OC05M2E4ZGE5MTQ2NTkvYzJwYS5zaWduYXR1cmVrZXhwbGFuYXRpb251Y2xhaW0gc2lnbmF0dXJlIHZhbGlko2Rjb2RleBlhc3NlcnRpb24uaGFzaGVkVVJJLm1hdGNoY3VybHhec2VsZiNqdW1iZj0vYzJwYS91cm46YzJwYTo3NmZlMTlmNi1kNjJmLTQ5MzMtYmE4OC05M2E4ZGE5MTQ2NTkvYzJwYS5hc3NlcnRpb25zL2MycGEuYWN0aW9ucy52MmtleHBsYW5hdGlvbng+aGFzaGVkIHVyaSBtYXRjaGVkOiBzZWxmI2p1bWJmPWMycGEuYXNzZXJ0aW9ucy9jMnBhLmFjdGlvbnMudjKjZGNvZGV4GWFzc2VydGlvbi5oYXNoZWRVUkkubWF0Y2hjdXJseF1zZWxmI2p1bWJmPS9jMnBhL3VybjpjMnBhOjc2ZmUxOWY2LWQ2MmYtNDkzMy1iYTg4LTkzYThkYTkxNDY1OS9jMnBhLmFzc2VydGlvbnMvYzJwYS5oYXNoLmRhdGFrZXhwbGFuYXRpb254PWhhc2hlZCB1cmkgbWF0Y2hlZDogc2VsZiNqdW1iZj1jMnBhLmFzc2VydGlvbnMvYzJwYS5oYXNoLmRhdGGjZGNvZGV4GWFzc2VydGlvbi5oYXNoZWRVUkkubWF0Y2hjdXJseGFzZWxmI2p1bWJmPS9jMnBhL3VybjpjMnBhOjc2ZmUxOWY2LWQ2MmYtNDkzMy1iYTg4LTkzYThkYTkxNDY1OS9jMnBhLmFzc2VydGlvbnMvYzJwYS5pbmdyZWRpZW50LnYza2V4cGxhbmF0aW9ueEFoYXNoZWQgdXJpIG1hdGNoZWQ6IHNlbGYjanVtYmY9YzJwYS5hc3NlcnRpb25zL2MycGEuaW5ncmVkaWVudC52M6NkY29kZXgYYXNzZXJ0aW9uLmRhdGFIYXNoLm1hdGNoY3VybHhdc2VsZiNqdW1iZj0vYzJwYS91cm46YzJwYTo3NmZlMTlmNi1kNjJmLTQ5MzMtYmE4OC05M2E4ZGE5MTQ2NTkvYzJwYS5hc3NlcnRpb25zL2MycGEuaGFzaC5kYXRha2V4cGxhbmF0aW9ub2RhdGEgaGFzaCB2YWxpZG1pbmZvcm1hdGlvbmFsgGdmYWlsdXJlgaNkY29kZXgbc2lnbmluZ0NyZWRlbnRpYWwudW50cnVzdGVkY3VybHhNc2VsZiNqdW1iZj0vYzJwYS91cm46YzJwYTo3NmZlMTlmNi1kNjJmLTQ5MzMtYmE4OC05M2E4ZGE5MTQ2NTkvYzJwYS5zaWduYXR1cmVrZXhwbGFuYXRpb254HXNpZ25pbmcgY2VydGlmaWNhdGUgdW50cnVzdGVkcGluZ3JlZGllbnREZWx0YXOBonZpbmdyZWRpZW50QXNzZXJ0aW9uVVJJeGFzZWxmI2p1bWJmPS9jMnBhL3VybjpjMnBhOjc2ZmUxOWY2LWQ2MmYtNDkzMy1iYTg4LTkzYThkYTkxNDY1OS9jMnBhLmFzc2VydGlvbnMvYzJwYS5pbmdyZWRpZW50LnYzcHZhbGlkYXRpb25EZWx0YXOjZ3N1Y2Nlc3OBo2Rjb2RleB1pbmdyZWRpZW50Lm1hbmlmZXN0LnZhbGlkYXRlZGN1cmx4PnNlbGYjanVtYmY9L2MycGEvdXJuOmMycGE6ZmY5MDliOWEtODI5Ni00NzQ3LTlmNzYtMWEyMDM5NjhkNGY5a2V4cGxhbmF0aW9ud2luZ3JlZGllbnQgaGFzaCBtYXRjaGVkbWluZm9ybWF0aW9uYWyAZ2ZhaWx1cmWAamluc3RhbmNlSUR4LHhtcDppaWQ6YmYzOWQ2MzQtMjU4NC00NjlhLWI1NzctMjc2MGM5MGI5MDk1bmFjdGl2ZU1hbmlmZXN0o2N1cmx4PnNlbGYjanVtYmY9L2MycGEvdXJuOmMycGE6NzZmZTE5ZjYtZDYyZi00OTMzLWJhODgtOTNhOGRhOTE0NjU5Y2FsZ2ZzaGEyNTZkaGFzaFggsRzmpSDJfXP4C9WYEPceRNDIoWXBU8nGQfkSaf0nALduY2xhaW1TaWduYXR1cmWjY3VybHhNc2VsZiNqdW1iZj0vYzJwYS91cm46YzJwYTo3NmZlMTlmNi1kNjJmLTQ5MzMtYmE4OC05M2E4ZGE5MTQ2NTkvYzJwYS5zaWduYXR1cmVjYWxnZnNoYTI1NmRoYXNoWCDy4dOK9qi9x4N+PfR8Pjo8hHz+bboN0ayzGGQJvygMAgAAAe5qdW1iAAAAQWp1bWRjYm9yABEAEIAAAKoAOJtxE2MycGEuYWN0aW9ucy52MgAAAAAYYzJzaPyUeZMx6/W97+aiKAUmoF8AAAGlY2JvcqFnYWN0aW9uc4KiZmFjdGlvbmtjMnBhLm9wZW5lZGpwYXJhbWV0ZXJzoWtpbmdyZWRpZW50c4GiY3VybHgtc2VsZiNqdW1iZj1jMnBhLmFzc2VydGlvbnMvYzJwYS5pbmdyZWRpZW50LnYzZGhhc2hYIJ1peZbb+JSYVlVq8SO+6KUynP0/oJGPHzuKDdxORKi+pGZhY3Rpb25sYzJwYS5jcmVhdGVkanBhcmFtZXRlcnOha2luZ3JlZGllbnRzgaJjdXJseC1zZWxmI2p1bWJmPWMycGEuYXNzZXJ0aW9ucy9jMnBhLmluZ3JlZGllbnQudjNkaGFzaFggnWl5ltv4lJhWVWrxI77opTKc/T+gkY8fO4oN3E5EqL5xZGlnaXRhbFNvdXJjZVR5cGV4QWh0dHA6Ly9jdi5pcHRjLm9yZy9uZXdzY29kZXMvZGlnaXRhbHNvdXJjZXR5cGUvY29tcG9zaXRlU3ludGhldGlja2Rlc2NyaXB0aW9ueB9Db21wb3NlZCBpbiB0aGUgUmVjcmFmdCBlZGl0b3IuAAAAxGp1bWIAAABAanVtZGNib3IAEQAQgAAAqgA4m3ETYzJwYS5oYXNoLmRhdGEAAAAAGGMyc2ioDyClpYej6mn1OWrQHnV3AAAAfGNib3KlamV4Y2x1c2lvbnOBomVzdGFydBjqZmxlbmd0aBlOoGRuYW1lbmp1bWJmIG1hbmlmZXN0Y2FsZ2ZzaGEyNTZkaGFzaFggd9E7sgURsZ/brujAtQ47HfVzryLIzJyl8TP6e5v40RpjcGFkSQAAAAAAAAAAAAAAApZqdW1iAAAAJ2p1bWRjMmNsABEAEIAAAKoAOJtxA2MycGEuY2xhaW0udjIAAAACZ2Nib3Knamluc3RhbmNlSUR4LHhtcDppaWQ6NDFhOGI2NzUtYmZjYy00ODVmLWEwZGMtYjg0YzY3ZjNlZTVhdGNsYWltX2dlbmVyYXRvcl9pbmZvo2RuYW1lanJlY3JhZnQuYWlndmVyc2lvbngoODFjZTgyZTJjNWMzY2JmYmU4YzZmYmUxNzlkNWY4ZDkxYzQwOWNlMXdvcmcuY29udGVudGF1dGguYzJwYV9yc2YwLjkwLjdpc2lnbmF0dXJleE1zZWxmI2p1bWJmPS9jMnBhL3VybjpjMnBhOjMzYTYzNzM0LTQzYTMtNDBjYy04OTBlLTAwOTUzZTY0MDAwYy9jMnBhLnNpZ25hdHVyZXJjcmVhdGVkX2Fzc2VydGlvbnOComN1cmx4KnNlbGYjanVtYmY9YzJwYS5hc3NlcnRpb25zL2MycGEuYWN0aW9ucy52MmRoYXNoWCDTvmgp9AIRvpEpcZ804tPX3QnzxN1OXC6Pe1nQFB0h1qJjdXJseClzZWxmI2p1bWJmPWMycGEuYXNzZXJ0aW9ucy9jMnBhLmhhc2guZGF0YWRoYXNoWCA3nDlAFI+Egk59GzEqzaW4XHVXDVcbP/muS/hfaoH6k3NnYXRoZXJlZF9hc3NlcnRpb25zgaJjdXJseC1zZWxmI2p1bWJmPWMycGEuYXNzZXJ0aW9ucy9jMnBhLmluZ3JlZGllbnQudjNkaGFzaFggnWl5ltv4lJhWVWrxI77opTKc/T+gkY8fO4oN3E5EqL5oZGM6dGl0bGVtUmVjcmFmdCBJbWFnZWNhbGdmc2hhMjU2AAAH3Gp1bWIAAAAoanVtZGMyY3MAEQAQgAAAqgA4m3EDYzJwYS5zaWduYXR1cmUAAAAHrGNib3LShFkDsKIBJhghglkB5zCCAeMwggGJoAMCAQICCQC33lpjQ1FuejAKBggqhkjOPQQDAjBAMR8wHQYDVQQDDBZSZWNyYWZ0IFN0YWdpbmcgRGV2IENBMRAwDgYDVQQKDAdSZWNyYWZ0MQswCQYDVQQGEwJVUzAeFw0yNjA2MTIxOTQzNTBaFw0yNzA2MTIxOTQzNTBaMDcxCzAJBgNVBAYTAlVTMRMwEQYDVQQKEwpSZWNyYWZ0IEFJMRMwEQYDVQQDEwpyZWNyYWZ0LmFpMFkwEwYHKoZIzj0CAQYIKoZIzj0DAQcDQgAESmk1WwArIPw3hty3jsWHSA/1QOhBRu9xOjpJ2/iiIghScoEVM+Lnjds/7dqmG+giFL0vEb4DoogpX6KrGLcPNaN1MHMwDAYDVR0TAQH/BAIwADAOBgNVHQ8BAf8EBAMCBsAwEwYDVR0lBAwwCgYIKwYBBQUHAwQwHQYDVR0OBBYEFC8x6QXp/eki9cuCDx2vDJDLIV39MB8GA1UdIwQYMBaAFAILKjgayqqXSv/5v5MWaO2UeHm3MAoGCCqGSM49BAMCA0gAMEUCIFPISltGl775PEkIFRTZGsevWJvWnvBrE9kWU0MPgedQAiEAtA+AZBKEQ+DdK9mUZDctB2Wlt1iAsv0GRjfeYpReMsxZAb0wggG5MIIBX6ADAgECAgkAnPloO0+gE28wCgYIKoZIzj0EAwIwQDEfMB0GA1UEAwwWUmVjcmFmdCBTdGFnaW5nIERldiBDQTEQMA4GA1UECgwHUmVjcmFmdDELMAkGA1UEBhMCVVMwHhcNMjYwNjEyMTk0MDE2WhcNMjgwNjExMTk0MDE2WjBAMR8wHQYDVQQDDBZSZWNyYWZ0IFN0YWdpbmcgRGV2IENBMRAwDgYDVQQKDAdSZWNyYWZ0MQswCQYDVQQGEwJVUzBZMBMGByqGSM49AgEGCCqGSM49AwEHA0IABEPSEAZXFWymij2K0EnzoS/9NLO8VAwu0YpyLizvyNZPfcvcoeqFhfZD8Wj/rcdb9T3ji98q1arie99B9GRog8qjQjBAMA8GA1UdEwEB/wQFMAMBAf8wDgYDVR0PAQH/BAQDAgGGMB0GA1UdDgQWBBQCCyo4Gsqql0r/+b+TFmjtlHh5tzAKBggqhkjOPQQDAgNIADBFAiBUMDSJi5WA3kIY4BfmYqk24HLs0qpjicN0NpUP4bvNxQIhAPTvHC5v8X6FS6geI7XW7h84t1i/qdkTfg0RpMKWLMFboWNwYWRZA6QAAAAAAAAAAAAAAAAAAAAAAAAAAAAAAAAAAAAAAAAAAAAAAAAAAAAAAAAAAAAAAAAAAAAAAAAAAAAAAAAAAAAAAAAAAAAAAAAAAAAAAAAAAAAAAAAAAAAAAAAAAAAAAAAAAAAAAAAAAAAAAAAAAAAAAAAAAAAAAAAAAAAAAAAAAAAAAAAAAAAAAAAAAAAAAAAAAAAAAAAAAAAAAAAAAAAAAAAAAAAAAAAAAAAAAAAAAAAAAAAAAAAAAAAAAAAAAAAAAAAAAAAAAAAAAAAAAAAAAAAAAAAAAAAAAAAAAAAAAAAAAAAAAAAAAAAAAAAAAAAAAAAAAAAAAAAAAAAAAAAAAAAAAAAAAAAAAAAAAAAAAAAAAAAAAAAAAAAAAAAAAAAAAAAAAAAAAAAAAAAAAAAAAAAAAAAAAAAAAAAAAAAAAAAAAAAAAAAAAAAAAAAAAAAAAAAAAAAAAAAAAAAAAAAAAAAAAAAAAAAAAAAAAAAAAAAAAAAAAAAAAAAAAAAAAAAAAAAAAAAAAAAAAAAAAAAAAAAAAAAAAAAAAAAAAAAAAAAAAAAAAAAAAAAAAAAAAAAAAAAAAAAAAAAAAAAAAAAAAAAAAAAAAAAAAAAAAAAAAAAAAAAAAAAAAAAAAAAAAAAAAAAAAAAAAAAAAAAAAAAAAAAAAAAAAAAAAAAAAAAAAAAAAAAAAAAAAAAAAAAAAAAAAAAAAAAAAAAAAAAAAAAAAAAAAAAAAAAAAAAAAAAAAAAAAAAAAAAAAAAAAAAAAAAAAAAAAAAAAAAAAAAAAAAAAAAAAAAAAAAAAAAAAAAAAAAAAAAAAAAAAAAAAAAAAAAAAAAAAAAAAAAAAAAAAAAAAAAAAAAAAAAAAAAAAAAAAAAAAAAAAAAAAAAAAAAAAAAAAAAAAAAAAAAAAAAAAAAAAAAAAAAAAAAAAAAAAAAAAAAAAAAAAAAAAAAAAAAAAAAAAAAAAAAAAAAAAAAAAAAAAAAAAAAAAAAAAAAAAAAAAAAAAAAAAAAAAAAAAAAAAAAAAAAAAAAAAAAAAAAAAAAAAAAAAAAAAAAAAAAAAAAAAAAAAAAAAAAAAAAAAAAAAAAAAAAAAAAAAAAAAAAAAAAAAAAAAAAAAAAAAAAAAAAAAAAAAAAAAAAAAAAAAAAAAAAAAAAAAAAAAAAAAAAAAAAAAAAAAAAAAAAAAAAAAAAAAAAAAAAAAAAAAAAAAAAAAAAAAAAAAAAAAAAAAAAAAAAAAAAAAPZYQBXIL8W4/JNyFkPJvLA+1kxncluNXNxJMFcV7S7KhBYYElMKU44peNKCtgDc/UJ+89dFfxDXYj539KntfmtKpvU=</c2pa:manifest></metadata><path d="M571.055 109.252C584.091 113.851 601.224 128.462 609.601 139.147C624.78 158.508 637.263 185.505 635.764 210.602C635.262 219.01 629.765 227.632 621.119 229.544C611.68 230.929 601.689 231.543 592.119 232.501L554.774 236.188C547.302 236.955 535.886 238.859 528.661 238.041C484.911 233.083 512.47 218.347 531.235 205.081C522.828 207.752 495.179 219.13 498.394 231.681C503.18 242.612 522.709 242.578 533.161 245.539C573.751 257.038 548.247 294.516 518.701 300.654L519.144 301.2C519.456 301.275 520.425 301.48 520.689 301.427C552.277 295.136 569.071 272.572 570.063 241.559C578.758 240.348 587.634 240.05 596.408 238.789C595.749 248.095 595.932 256.863 593.389 265.971C584.362 298.291 545.29 350.338 524.435 378.165L512.016 393.963C501.725 381.541 491.289 367.09 481.735 353.842C464.892 330.485 447.752 305.113 435.525 278.965C430.972 269.227 429.068 259.926 427.656 249.446C412.259 249.43 387.169 259.629 383.779 235.863C380.196 210.748 386.314 185.011 400.737 164.152C416.237 141.739 440.044 126.442 466.872 121.659C501.838 115.212 537.684 126.967 562.042 152.868C569.491 160.76 575.971 170.829 581.656 180.256C589.623 193.466 595.206 210.674 608.268 219.853C612.224 222.633 617.41 222.148 621.879 221.335C630.99 213.287 629.02 202.043 626.445 191.435C621.349 170.445 611.044 151.538 596 136.019C590.05 129.882 582.842 126.172 576.809 120.344C576.047 119.595 573.251 112.368 571.055 109.252ZM525.306 284.997C541.459 275.706 549.297 262.088 526.316 256.012C515.733 253.213 502.973 252.395 493.458 246.408C475.733 233.252 487.49 215.844 502.746 207.695C510.887 203.346 523.632 198.533 529.489 194.082C522.751 188.402 517.565 186.193 508.606 186.725C493.806 187.417 479.903 194.02 470.015 205.053C459.705 216.567 454.336 231.673 455.065 247.112C456.556 273.821 477.09 292.164 503.805 290.565C511.268 290.136 518.573 288.244 525.306 284.997Z"/><path d="M504.806 91.6481C519.796 90.1215 521.81 97.7506 533.873 102.264C538.232 103.265 543.576 102.267 547.984 102.363C558.441 102.591 565.05 109.081 568.877 118.304C570.385 121.938 572.329 126.913 575.302 129.448C579.852 133.327 586.874 131.747 590.504 137.43C593.656 142.366 590.112 148.296 593.902 152.697C597.59 157.261 604.457 156.536 608.185 160.822C613.527 166.963 612.588 174.986 612.211 182.367C613.461 184.706 615.873 188.038 617.969 189.557C628.711 197.339 623.405 226.812 608.28 211.928C598.198 202.008 592.611 185.876 585.18 173.857C581.034 167.15 577.117 161.264 572.319 154.971L572.002 154.551C555.79 133.4 525.487 116.82 499.192 114.071C468.123 110.822 440.539 118.928 416.077 137.706C423.445 128.015 433.451 120.988 443.622 114.657C450.127 97.4068 463.151 99.2614 477.661 103.784C490.906 99.8546 492.756 94.3721 504.806 91.6481ZM558.489 130.364C560.6 132.049 562.806 133.699 564.629 135.683C564.139 122.508 558.157 109.691 543.002 110.575L542.704 110.594C538.457 111.586 534.526 112.784 530.353 113.85C538.314 117.538 552.208 124.184 558.489 130.364ZM602.082 184.155C606.417 167.767 604.266 165.047 587.422 161.023L586.467 160.798C591.873 169.054 596.088 178.443 601.067 185.84L601.526 185.723L602.082 184.155ZM493.397 105.748C501.954 106.682 507.87 107.578 516.383 109.256C520.353 110.332 522.004 109.271 525.777 107.679C518.727 102.936 514.457 99.0427 505.646 99.598C500.784 101.299 497.729 102.865 493.397 105.748Z"/><path d="M335.129 417.223C349.011 415.494 361.716 425.213 363.681 439.064C365.645 452.915 356.144 465.784 342.328 467.983C333.18 469.439 323.958 465.848 318.204 458.588C312.451 451.328 311.061 441.529 314.569 432.956C318.077 424.382 325.937 418.368 335.129 417.223ZM339.734 457.673C348.028 456.92 354.158 449.614 353.459 441.316C352.76 433.018 345.493 426.841 337.191 427.487C328.813 428.139 322.567 435.486 323.273 443.86C323.978 452.233 331.365 458.432 339.734 457.673Z"/><path d="M596.96 418.521L606.016 418.455C605.974 434.477 606.401 450.915 606.152 466.869L595.824 466.965C595.966 463.08 595.82 459.507 595.681 455.624C595.932 449.627 595.983 443.622 595.834 437.621C577.809 466.298 583.294 474.072 562.727 438.115C562.362 447.15 562.546 457.8 562.469 466.989L552.097 466.976C551.86 450.946 552.042 434.541 552.057 418.483L561.575 418.482C567.525 427.384 573.67 438.711 579.511 448.161C584.873 438.694 591.042 427.5 596.96 418.521Z"/><path d="M670.025 418.484C678.999 418.658 695.569 416.858 703.073 420.972C706.944 423.076 709.791 426.667 710.956 430.917C712.219 435.474 711.62 440.346 709.291 444.461C706.623 449.067 702.958 451.067 697.993 452.416C692.464 453.043 686.699 453.048 681.123 453.16L681.009 466.937L670.04 466.974C669.863 450.889 670.008 434.586 670.025 418.484ZM681.012 444.083C686.379 444.133 693.82 444.905 698.084 441.814C700.843 438.438 702.781 433.481 698.533 430.36C693.647 426.77 686.781 427.434 681.063 427.575C681.003 433.077 680.986 438.581 681.012 444.083Z"/><path d="M444.608 418.571L453.779 418.501C459.619 424.896 472.255 440.838 477.527 448.084C477.375 438.242 477.361 428.399 477.484 418.557L488.011 418.537C488.052 433.912 487.624 451.732 488.324 466.861C485.254 466.929 482.075 466.906 478.996 466.921C473.088 459.556 460.309 444.614 455.696 437.333L455.414 466.926L444.964 466.888L444.608 418.571Z"/><path d="M514.422 418.534L525.819 418.454C526.895 420.506 527.919 422.882 528.825 425.029C534.735 439.035 541.671 452.857 547.226 466.986L535.822 466.984C534.27 463.602 532.784 460.191 531.364 456.752L526.571 456.728L508.991 456.501C507.813 460.004 506.242 463.462 504.777 466.862C501.262 466.951 497.417 466.855 493.874 466.834C499.226 452.076 507.592 432.712 514.422 418.534ZM512.717 447.927L521.625 447.808L527.656 447.913C526.579 445.117 521.455 431.668 520.21 429.863C517.622 435.807 514.892 441.829 512.717 447.927Z"/><path d="M632.424 418.485L643.878 418.465C649.541 431.091 660.671 454.611 664.579 466.843C660.942 466.948 657.152 466.929 653.501 466.962C652 463.635 650.631 460.25 649.398 456.814L646.125 456.63L626.762 456.509C625.45 459.708 624.132 463.594 622.923 466.886C619.328 466.912 615.677 466.867 612.077 466.856C613.167 462.221 617.062 453.563 619.073 448.874C623.425 438.701 627.876 428.571 632.424 418.485ZM630.663 447.908L638.017 448.009L645.241 447.877C644.36 445.478 639.042 430.853 637.932 429.91C635.551 435.679 632.745 442.082 630.663 447.908Z"/><path d="M404.193 418.482C408.177 418.34 412.904 418.488 416.945 418.513C410.344 425.609 403.808 432.765 397.339 439.98C400.923 444.579 404.439 449.23 407.885 453.932C411.228 458.157 414.44 462.483 417.516 466.905L405.091 466.982C399.863 461.001 394.839 454.345 389.942 448.047L383.529 455.05C383.438 458.952 383.212 463.009 383.051 466.923L373.04 466.916C372.069 451.844 372.493 433.836 372.562 418.526L383.369 418.491C383.011 424.913 383.431 434.235 383.524 440.916C389.817 433.92 397.589 424.838 404.193 418.482Z"/><path d="M422.741 418.513L433.767 418.519C434.446 431.077 434.188 454.107 433.849 466.893L422.868 466.981C422.852 451.619 422.363 433.546 422.741 418.513Z"/></svg>